<?xml version="1.0" encoding="utf-8"?>
<!-- Generator: Adobe Illustrator 17.1.0, SVG Export Plug-In . SVG Version: 6.00 Build 0)  -->
<!DOCTYPE svg PUBLIC "-//W3C//DTD SVG 1.1//EN" "http://www.w3.org/Graphics/SVG/1.1/DTD/svg11.dtd">
<svg version="1.1" id="Layer_1" xmlns="http://www.w3.org/2000/svg" xmlns:xlink="http://www.w3.org/1999/xlink" x="0px" y="0px"
	 viewBox="0 0 100 100" enable-background="new 0 0 100 100" xml:space="preserve">
<path d="M38.3,70.7c-17,0-30.7-14-30.7-31.3S21.4,8.1,38.3,8.1c11.5,0,21.6,6.5,26.8,16c1.3-0.2,2.6-0.4,3.9-0.4
	c12.7,0,23,10.5,23,23.5c0,12.9-10.3,23.5-23,23.5C63.7,70.7,44.5,70.7,38.3,70.7z M69,62.9c8.5,0,15.4-7,15.4-15.6
	c0-8.6-6.9-15.6-15.4-15.6c-3.1,0-5.9,0.9-8.3,2.5c-2.4-10.4-11.5-18.2-22.4-18.2c-12.7,0-23,10.5-23,23.5c0,13,10.3,23.5,23,23.5
	C45.3,62.9,63.2,62.9,69,62.9z"/>
</svg>
