<?xml version="1.0" encoding="utf-8"?>
<!-- Generator: Adobe Illustrator 17.1.0, SVG Export Plug-In . SVG Version: 6.00 Build 0)  -->
<!DOCTYPE svg PUBLIC "-//W3C//DTD SVG 1.1//EN" "http://www.w3.org/Graphics/SVG/1.1/DTD/svg11.dtd">
<svg version="1.1" id="Layer_1" xmlns="http://www.w3.org/2000/svg" xmlns:xlink="http://www.w3.org/1999/xlink" x="0px" y="0px"
	 viewBox="0 0 100 100" enable-background="new 0 0 100 100" xml:space="preserve">
<path d="M78.3,69.4v-8.9c4.8-2.8,8.1-8,8.1-14c0-8.9-7.2-16.2-16.2-16.2c-3.2,0-6.2,1-8.8,2.6c-2.5-10.8-12.1-18.8-23.6-18.8
	c-13.4,0-24.3,10.9-24.3,24.3c0,7.2,3.1,13.6,8.1,18.1v9.9c-9.7-5.6-16.2-16-16.2-28c0-17.9,14.5-32.4,32.4-32.4
	c12.2,0,22.7,6.7,28.3,16.6c1.3-0.2,2.7-0.4,4.1-0.4c13.4,0,24.3,10.9,24.3,24.3C94.4,57.1,87.7,66.1,78.3,69.4z M33.7,46.6
	c2.2,0,4,1.8,4,4v8.1c0,2.2-1.8,4-4,4c-2.2,0-4-1.8-4-4v-8.1C29.7,48.4,31.5,46.6,33.7,46.6z M33.7,70.9c2.2,0,4,1.8,4,4V83
	c0,2.2-1.8,4-4,4c-2.2,0-4-1.8-4-4v-8.1C29.7,72.7,31.5,70.9,33.7,70.9z M49.9,54.7c2.2,0,4,1.8,4,4v8.1c0,2.2-1.8,4-4,4
	c-2.2,0-4-1.8-4-4v-8.1C45.9,56.5,47.7,54.7,49.9,54.7z M49.9,78.9c2.2,0,4,1.8,4,4v8.1c0,2.2-1.8,4-4,4c-2.2,0-4-1.8-4-4V83
	C45.9,80.8,47.7,78.9,49.9,78.9z M66.1,46.6c2.2,0,4,1.8,4,4v8.1c0,2.2-1.8,4-4,4c-2.2,0-4-1.8-4-4v-8.1
	C62.1,48.4,63.9,46.6,66.1,46.6z M66.1,70.9c2.2,0,4,1.8,4,4V83c0,2.2-1.8,4-4,4c-2.2,0-4-1.8-4-4v-8.1
	C62.1,72.7,63.9,70.9,66.1,70.9z"/>
</svg>
