<?xml version="1.0" encoding="utf-8"?>
<!-- Generator: Adobe Illustrator 17.1.0, SVG Export Plug-In . SVG Version: 6.00 Build 0)  -->
<!DOCTYPE svg PUBLIC "-//W3C//DTD SVG 1.1//EN" "http://www.w3.org/Graphics/SVG/1.1/DTD/svg11.dtd">
<svg version="1.1" id="Layer_1" xmlns="http://www.w3.org/2000/svg" xmlns:xlink="http://www.w3.org/1999/xlink" x="0px" y="0px"
	 viewBox="0 0 100 100" enable-background="new 0 0 100 100" xml:space="preserve">
<path d="M78.5,68.7v-9.1c4.9-2.9,8.3-8.2,8.3-14.3c0-9.1-7.4-16.5-16.5-16.5c-3.3,0-6.4,1-9,2.7c-2.5-11-12.4-19.2-24.1-19.2
	c-13.7,0-24.8,11.1-24.8,24.8c0,7.3,3.2,13.9,8.3,18.5v10.2C10.7,60,4,49.3,4,37.1C4,18.8,18.8,4,37.1,4C49.5,4,60.3,10.8,66,21
	c1.4-0.2,2.8-0.4,4.2-0.4C83.9,20.5,95,31.7,95,45.4C95,56.2,88.1,65.3,78.5,68.7z M33,45.4c2.3,0,4.1,1.9,4.1,4.1v33.1
	c0,2.3-1.9,4.1-4.1,4.1c-2.3,0-4.1-1.9-4.1-4.1V49.5C28.8,47.2,30.7,45.4,33,45.4z M49.5,53.6c2.3,0,4.1,1.9,4.1,4.1v33.1
	c0,2.3-1.9,4.1-4.1,4.1c-2.3,0-4.1-1.9-4.1-4.1V57.8C45.4,55.5,47.2,53.6,49.5,53.6z M66,45.4c2.3,0,4.1,1.9,4.1,4.1v33.1
	c0,2.3-1.9,4.1-4.1,4.1s-4.1-1.9-4.1-4.1V49.5C61.9,47.2,63.8,45.4,66,45.4z"/>
</svg>
