<?xml version="1.0" encoding="utf-8"?>
<!-- Generator: Adobe Illustrator 17.1.0, SVG Export Plug-In . SVG Version: 6.00 Build 0)  -->
<!DOCTYPE svg PUBLIC "-//W3C//DTD SVG 1.1//EN" "http://www.w3.org/Graphics/SVG/1.1/DTD/svg11.dtd">
<svg version="1.1" id="Layer_1" xmlns="http://www.w3.org/2000/svg" xmlns:xlink="http://www.w3.org/1999/xlink" x="0px" y="0px"
	 viewBox="0 0 100 100" enable-background="new 0 0 100 100" xml:space="preserve">
<path d="M89.7,53.3h-7.3c-2,0-3.6-1.6-3.6-3.6c0-2,1.6-3.6,3.6-3.6h7.3c2,0,3.6,1.6,3.6,3.6C93.3,51.7,91.7,53.3,89.7,53.3z
	 M75.4,29.1c-1.4,1.4-3.7,1.4-5.1,0c-1.4-1.4-1.4-3.7,0-5.1l5.1-5.1c1.4-1.4,3.7-1.4,5.1,0c1.4,1.4,1.4,3.7,0,5.1L75.4,29.1z
	 M49.7,71.5c-12.1,0-21.8-9.8-21.8-21.8c0-12.1,9.8-21.8,21.8-21.8c12.1,0,21.8,9.8,21.8,21.8C71.5,61.7,61.7,71.5,49.7,71.5z
	 M49.7,35.1c-8,0-14.6,6.5-14.6,14.6c0,8,6.5,14.6,14.6,14.6s14.6-6.5,14.6-14.6C64.2,41.6,57.7,35.1,49.7,35.1z M49.7,20.6
	c-2,0-3.6-1.6-3.6-3.6V9.6c0-2,1.6-3.6,3.6-3.6c2,0,3.6,1.6,3.6,3.6v7.3C53.3,18.9,51.7,20.6,49.7,20.6z M23.9,29.1l-5.1-5.1
	c-1.4-1.4-1.4-3.7,0-5.1s3.7-1.4,5.1,0l5.1,5.1c1.4,1.4,1.4,3.7,0,5.1S25.4,30.5,23.9,29.1z M20.6,49.7c0,2-1.6,3.6-3.6,3.6H9.6
	c-2,0-3.6-1.6-3.6-3.6c0-2,1.6-3.6,3.6-3.6h7.3C18.9,46,20.6,47.7,20.6,49.7z M23.9,70.2c1.4-1.4,3.7-1.4,5.1,0
	c1.4,1.4,1.4,3.7,0,5.1l-5.1,5.1c-1.4,1.4-3.7,1.4-5.1,0c-1.4-1.4-1.4-3.7,0-5.1L23.9,70.2z M49.7,78.8c2,0,3.6,1.6,3.6,3.6v7.3
	c0,2-1.6,3.6-3.6,3.6c-2,0-3.6-1.6-3.6-3.6v-7.3C46,80.4,47.7,78.8,49.7,78.8z M75.4,70.2l5.1,5.1c1.4,1.4,1.4,3.7,0,5.1
	c-1.4,1.4-3.7,1.4-5.1,0l-5.1-5.1c-1.4-1.4-1.4-3.7,0-5.1C71.7,68.8,74,68.8,75.4,70.2z"/>
</svg>
